<?xml version="1.0" encoding="iso-8859-1"?>
<!-- Uploaded to: SVG Repo, www.svgrepo.com, Generator: SVG Repo Mixer Tools -->
<svg height="800px" width="800px" version="1.1" id="Layer_1" xmlns="http://www.w3.org/2000/svg" xmlns:xlink="http://www.w3.org/1999/xlink" 
	 viewBox="0 0 485 485" xml:space="preserve">
<path style="fill:#4CDBC4;" d="M368.1,0H106.2C95,0,86,9,86,20.2v65.1h302.4V20.2C388.3,9,379.2,0,368.1,0z"/>
<path style="fill:#F2F2F2;" d="M355.5,85.3v-4.8c-20.7,0-37.5-16.8-37.5-37.4H167.8c0,20.7-16.8,37.4-37.5,37.4v4.8H355.5z"/>
<path style="fill:#40596B;" d="M454,85.3H20.2C9,85.3,0,94.3,0,105.5v359.3C0,476,9,485,20.2,485H454c11.2,0,20.2-9,20.2-20.2V105.5
	C474.2,94.4,465.2,85.3,454,85.3z"/>
<g>
	<polygon style="fill:#ACB3BA;" points="59.3,447.4 37.7,447.4 37.7,425.8 48.5,425.8 48.5,436.6 59.3,436.6 	"/>
	<path style="fill:#ACB3BA;" d="M48.5,400.3H37.7v-25.6h10.8V400.3z M48.5,349.1H37.7v-25.6h10.8V349.1z"/>
	<path style="fill:#ACB3BA;" d="M48.5,298H37.7v-25.6h10.8V298z M48.5,246.8H37.7v-25.6h10.8V246.8z M48.5,195.7H37.7v-25.6h10.8
		V195.7z"/>
	<polygon style="fill:#ACB3BA;" points="48.5,144.5 37.7,144.5 37.7,123 59.3,123 59.3,133.8 48.5,133.8 	"/>
	<path style="fill:#ACB3BA;" d="M188.6,133.8h-32.3V123h32.3V133.8z M123.9,133.8H91.6V123h32.3V133.8z"/>
	<path style="fill:#ACB3BA;" d="M382.6,133.8h-32.3V123h32.3V133.8z M318,133.8h-32.3V123H318V133.8z M253.3,133.8H221V123h32.3
		V133.8z"/>
	<polygon style="fill:#ACB3BA;" points="436.5,144.5 425.7,144.5 425.7,133.8 415,133.8 415,123 436.5,123 	"/>
	<path style="fill:#ACB3BA;" d="M436.5,246.8h-10.8v-25.6h10.8V246.8z M436.5,195.7h-10.8v-25.6h10.8V195.7z"/>
	<path style="fill:#ACB3BA;" d="M436.5,400.3h-10.8v-25.6h10.8V400.3z M436.5,349.1h-10.8v-25.6h10.8V349.1z M436.5,298h-10.8v-25.6
		h10.8V298z"/>
	<polygon style="fill:#ACB3BA;" points="436.5,447.4 415,447.4 415,436.6 425.7,436.6 425.7,425.8 436.5,425.8 	"/>
	<path style="fill:#ACB3BA;" d="M382.6,447.4h-32.3v-10.8h32.3V447.4z M318,447.4h-32.3v-10.8H318V447.4z"/>
	<path style="fill:#ACB3BA;" d="M253.3,447.4H221v-10.8h32.3V447.4z M188.6,447.4h-32.3v-10.8h32.3V447.4z M123.9,447.4H91.6v-10.8
		h32.3V447.4z"/>
</g>
<path style="fill:#FF7058;" d="M374,241c-24.4,0-44.2,19.8-44.2,44.2c0,24.4,19.8,44.2,44.2,44.2h111v-88.5H374V241z"/>
<ellipse style="fill:#F2F2F2;" cx="380.5" cy="285.2" rx="29" ry="29"/>
</svg>